G75*
%MOIN*%
%OFA0B0*%
%FSLAX25Y25*%
%IPPOS*%
%LPD*%
%AMOC8*
5,1,8,0,0,1.08239X$1,22.5*
%
%ADD10C,0.00000*%
%ADD11C,0.00800*%
%ADD12C,0.05150*%
%ADD13C,0.06600*%
%ADD14R,0.06496X0.06496*%
%ADD15C,0.06496*%
%ADD16OC8,0.05200*%
%ADD17OC8,0.10000*%
%ADD18C,0.05200*%
%ADD19R,0.07098X0.06299*%
%ADD20R,0.06299X0.07098*%
%ADD21C,0.06000*%
%ADD22C,0.02000*%
%ADD23C,0.01600*%
D10*
X0008528Y0003807D02*
X0008528Y0148768D01*
X0187729Y0148768D01*
X0187729Y0003807D01*
X0008528Y0003807D01*
D11*
X0068197Y0009776D02*
X0074336Y0009776D01*
X0074336Y0008242D02*
X0074336Y0011311D01*
X0072801Y0012846D01*
X0069732Y0012846D01*
X0068197Y0011311D01*
X0068197Y0009776D01*
X0069732Y0006707D02*
X0072801Y0006707D01*
X0074336Y0008242D01*
X0077405Y0006707D02*
X0077405Y0011311D01*
X0078940Y0012846D01*
X0083544Y0012846D01*
X0083544Y0006707D01*
X0086613Y0009776D02*
X0092752Y0009776D01*
X0092752Y0008242D02*
X0092752Y0011311D01*
X0091217Y0012846D01*
X0088148Y0012846D01*
X0086613Y0011311D01*
X0086613Y0009776D01*
X0088148Y0006707D02*
X0091217Y0006707D01*
X0092752Y0008242D01*
X0095821Y0008242D02*
X0095821Y0011311D01*
X0097355Y0012846D01*
X0100425Y0012846D01*
X0101959Y0011311D01*
X0101959Y0008242D01*
X0100425Y0006707D01*
X0097355Y0006707D01*
X0095821Y0008242D01*
X0105029Y0006707D02*
X0105029Y0011311D01*
X0106563Y0012846D01*
X0109633Y0012846D01*
X0111167Y0011311D01*
X0111167Y0015915D02*
X0111167Y0006707D01*
X0117306Y0006707D02*
X0117306Y0015915D01*
X0120375Y0015915D02*
X0114237Y0015915D01*
D12*
X0098370Y0046307D03*
X0078685Y0046307D03*
X0128607Y0093807D03*
X0138449Y0093807D03*
X0098882Y0105303D03*
X0087504Y0105185D03*
X0076087Y0105185D03*
X0086107Y0131307D03*
X0095949Y0131307D03*
D13*
X0093528Y0078807D03*
X0061028Y0066307D03*
X0053528Y0078807D03*
X0021028Y0066307D03*
X0018528Y0048807D03*
X0058528Y0048807D03*
X0118528Y0036307D03*
X0158528Y0036307D03*
D14*
X0158528Y0128807D03*
X0028528Y0108807D03*
D15*
X0028528Y0088807D03*
X0138528Y0128807D03*
D16*
X0041028Y0133807D03*
X0031028Y0133807D03*
D17*
X0018528Y0138807D03*
X0018528Y0013807D03*
X0178528Y0013807D03*
X0178528Y0138807D03*
D18*
X0061128Y0141307D02*
X0055928Y0141307D01*
X0055928Y0131307D02*
X0061128Y0131307D01*
X0061128Y0121307D02*
X0055928Y0121307D01*
D19*
X0056028Y0109406D03*
X0056028Y0098209D03*
X0116028Y0123209D03*
X0116028Y0134406D03*
D20*
X0116626Y0078807D03*
X0105429Y0078807D03*
D21*
X0133528Y0056807D02*
X0133528Y0050807D01*
X0153528Y0050807D02*
X0153528Y0056807D01*
X0146528Y0073807D02*
X0140528Y0073807D01*
D22*
X0143528Y0073807D02*
X0153528Y0063807D01*
X0156028Y0063807D01*
X0161028Y0058807D01*
X0161028Y0043807D01*
X0143528Y0043807D01*
X0133528Y0053807D01*
X0116028Y0071307D01*
X0101028Y0071307D01*
X0093528Y0078807D01*
X0086028Y0086307D01*
X0041028Y0086307D01*
X0041028Y0096307D01*
X0026028Y0096307D01*
X0023528Y0093807D01*
X0021028Y0093807D01*
X0021028Y0086307D01*
X0036028Y0071307D01*
X0056028Y0071307D01*
X0058528Y0073807D01*
X0068528Y0073807D01*
X0068528Y0058807D01*
X0083528Y0058807D01*
X0096028Y0046307D01*
X0098370Y0046307D01*
X0091028Y0036307D02*
X0118528Y0036307D01*
X0126028Y0028807D01*
X0166028Y0028807D01*
X0166028Y0063807D01*
X0148528Y0081307D01*
X0128528Y0081307D01*
X0123528Y0086307D01*
X0121028Y0086307D01*
X0121028Y0093807D01*
X0103528Y0111307D01*
X0083528Y0111307D01*
X0078528Y0106307D01*
X0076087Y0105185D01*
X0081028Y0098807D02*
X0068528Y0098807D01*
X0068528Y0118807D01*
X0118528Y0118807D01*
X0116028Y0121307D01*
X0116028Y0123209D01*
X0118528Y0118807D02*
X0133528Y0103807D01*
X0158528Y0128807D01*
X0166028Y0136307D02*
X0146028Y0136307D01*
X0138528Y0128807D01*
X0126028Y0141307D01*
X0106028Y0141307D01*
X0096028Y0131307D01*
X0095949Y0131307D01*
X0093528Y0123807D02*
X0086028Y0131307D01*
X0086107Y0131307D01*
X0086028Y0131307D02*
X0058528Y0131307D01*
X0048528Y0131307D01*
X0048528Y0093807D01*
X0051028Y0091307D01*
X0103528Y0091307D01*
X0103528Y0078807D01*
X0105429Y0078807D01*
X0116626Y0078807D02*
X0118528Y0078807D01*
X0133528Y0063807D01*
X0143528Y0063807D01*
X0153528Y0053807D01*
X0171028Y0066307D02*
X0171028Y0023807D01*
X0073528Y0023807D01*
X0038528Y0058807D01*
X0068528Y0058807D01*
X0061028Y0066307D02*
X0031028Y0066307D01*
X0023528Y0073807D01*
X0013528Y0073807D01*
X0013528Y0093807D01*
X0028528Y0108807D01*
X0041028Y0096307D02*
X0041028Y0133807D01*
X0038528Y0141307D02*
X0058528Y0141307D01*
X0038528Y0141307D02*
X0031028Y0133807D01*
X0056028Y0121307D02*
X0058528Y0121307D01*
X0056028Y0121307D02*
X0056028Y0109406D01*
X0056028Y0098807D02*
X0056028Y0098209D01*
X0056028Y0098807D02*
X0068528Y0098807D01*
X0081028Y0098807D02*
X0086028Y0103807D01*
X0087504Y0105185D01*
X0098528Y0103807D02*
X0098882Y0105303D01*
X0098528Y0103807D02*
X0103528Y0103807D01*
X0103528Y0091307D01*
X0093528Y0071307D02*
X0078528Y0071307D01*
X0071028Y0078807D01*
X0053528Y0078807D01*
X0038528Y0078807D01*
X0028528Y0088807D01*
X0013528Y0073807D02*
X0013528Y0048807D01*
X0018528Y0048807D01*
X0028528Y0058807D02*
X0021028Y0066307D01*
X0028528Y0058807D02*
X0038528Y0058807D01*
X0058528Y0048807D02*
X0076028Y0048807D01*
X0078528Y0046307D01*
X0078685Y0046307D01*
X0081028Y0046307D01*
X0091028Y0036307D01*
X0093528Y0071307D02*
X0126028Y0038807D01*
X0156028Y0038807D01*
X0158528Y0036307D01*
X0171028Y0066307D02*
X0146028Y0091307D01*
X0141028Y0086307D01*
X0131028Y0086307D01*
X0131028Y0093807D01*
X0128607Y0093807D01*
X0136028Y0093807D02*
X0138449Y0093807D01*
X0136028Y0093807D02*
X0136028Y0101307D01*
X0133528Y0103807D01*
X0146028Y0091307D02*
X0166028Y0111307D01*
X0166028Y0136307D01*
X0116028Y0134406D02*
X0116028Y0133807D01*
X0113528Y0131307D01*
X0106028Y0131307D01*
X0098528Y0123807D01*
X0093528Y0123807D01*
D23*
X0091574Y0131135D02*
X0091481Y0131228D01*
X0091481Y0132376D01*
X0090663Y0134352D01*
X0089151Y0135864D01*
X0087176Y0136682D01*
X0085038Y0136682D01*
X0083062Y0135864D01*
X0082306Y0135107D01*
X0064965Y0135107D01*
X0064187Y0135885D01*
X0063168Y0136307D01*
X0064187Y0136729D01*
X0065706Y0138248D01*
X0066528Y0140233D01*
X0066528Y0142381D01*
X0065871Y0143968D01*
X0172658Y0143968D01*
X0170728Y0142038D01*
X0170728Y0135576D01*
X0175297Y0131007D01*
X0181759Y0131007D01*
X0182929Y0132177D01*
X0182929Y0020437D01*
X0181759Y0021607D01*
X0175297Y0021607D01*
X0170728Y0017038D01*
X0170728Y0010576D01*
X0172697Y0008607D01*
X0120506Y0008607D01*
X0120506Y0012715D01*
X0121012Y0012715D01*
X0122188Y0013202D01*
X0123088Y0014102D01*
X0123575Y0015278D01*
X0123575Y0016551D01*
X0123088Y0017728D01*
X0122188Y0018628D01*
X0121012Y0019115D01*
X0113600Y0019115D01*
X0112702Y0018743D01*
X0111804Y0019115D01*
X0110531Y0019115D01*
X0109355Y0018628D01*
X0108454Y0017728D01*
X0107967Y0016551D01*
X0107967Y0016046D01*
X0105927Y0016046D01*
X0104751Y0015558D01*
X0103494Y0014302D01*
X0103138Y0014658D01*
X0103138Y0014658D01*
X0102256Y0015540D01*
X0102237Y0015558D01*
X0101562Y0015838D01*
X0101061Y0016046D01*
X0096719Y0016046D01*
X0095543Y0015558D01*
X0094643Y0014658D01*
X0094286Y0014302D01*
X0093930Y0014658D01*
X0093930Y0014658D01*
X0093030Y0015558D01*
X0092327Y0015850D01*
X0091853Y0016046D01*
X0087511Y0016046D01*
X0086335Y0015558D01*
X0085846Y0015069D01*
X0085356Y0015558D01*
X0084180Y0016046D01*
X0078303Y0016046D01*
X0077127Y0015558D01*
X0075870Y0014302D01*
X0075514Y0014658D01*
X0075514Y0014658D01*
X0074614Y0015558D01*
X0073911Y0015850D01*
X0073438Y0016046D01*
X0069095Y0016046D01*
X0067919Y0015558D01*
X0065484Y0013124D01*
X0064997Y0011948D01*
X0064997Y0009140D01*
X0065218Y0008607D01*
X0024359Y0008607D01*
X0026328Y0010576D01*
X0026328Y0017038D01*
X0021759Y0021607D01*
X0015297Y0021607D01*
X0013328Y0019638D01*
X0013328Y0045007D01*
X0013701Y0045007D01*
X0015073Y0043636D01*
X0017315Y0042707D01*
X0019741Y0042707D01*
X0021983Y0043636D01*
X0023699Y0045352D01*
X0024628Y0047594D01*
X0024628Y0050020D01*
X0023699Y0052262D01*
X0021983Y0053978D01*
X0019741Y0054907D01*
X0017328Y0054907D01*
X0017328Y0062795D01*
X0017705Y0062417D01*
X0018355Y0061945D01*
X0019070Y0061581D01*
X0019834Y0061333D01*
X0020627Y0061207D01*
X0020728Y0061207D01*
X0020728Y0066007D01*
X0021328Y0066007D01*
X0021328Y0061207D01*
X0021429Y0061207D01*
X0022222Y0061333D01*
X0022986Y0061581D01*
X0023701Y0061945D01*
X0024350Y0062417D01*
X0024918Y0062985D01*
X0025390Y0063634D01*
X0025754Y0064349D01*
X0026002Y0065113D01*
X0026118Y0065843D01*
X0027806Y0064155D01*
X0027806Y0064155D01*
X0028875Y0063086D01*
X0030272Y0062507D01*
X0056201Y0062507D01*
X0057573Y0061136D01*
X0059815Y0060207D01*
X0062241Y0060207D01*
X0064483Y0061136D01*
X0066199Y0062852D01*
X0067128Y0065094D01*
X0067128Y0067520D01*
X0066199Y0069762D01*
X0064483Y0071478D01*
X0062241Y0072407D01*
X0059815Y0072407D01*
X0057573Y0071478D01*
X0056201Y0070107D01*
X0032602Y0070107D01*
X0026749Y0075960D01*
X0025680Y0077029D01*
X0024284Y0077607D01*
X0017328Y0077607D01*
X0017328Y0092233D01*
X0027854Y0102759D01*
X0032333Y0102759D01*
X0033362Y0103185D01*
X0034150Y0103973D01*
X0034576Y0105002D01*
X0034576Y0112612D01*
X0034150Y0113641D01*
X0033362Y0114429D01*
X0032333Y0114855D01*
X0024723Y0114855D01*
X0023694Y0114429D01*
X0022906Y0113641D01*
X0022480Y0112612D01*
X0022480Y0108133D01*
X0013328Y0098981D01*
X0013328Y0132976D01*
X0015297Y0131007D01*
X0021759Y0131007D01*
X0025628Y0134876D01*
X0025628Y0131570D01*
X0028791Y0128407D01*
X0033265Y0128407D01*
X0036428Y0131570D01*
X0036428Y0133833D01*
X0036628Y0134033D01*
X0036628Y0133807D01*
X0036628Y0131985D01*
X0039205Y0129407D01*
X0041028Y0129407D01*
X0042850Y0129407D01*
X0044728Y0131285D01*
X0044728Y0093051D01*
X0045306Y0091655D01*
X0046375Y0090586D01*
X0048875Y0088086D01*
X0050272Y0087507D01*
X0099728Y0087507D01*
X0099728Y0083512D01*
X0099480Y0082913D01*
X0099480Y0074701D01*
X0099906Y0073672D01*
X0100694Y0072884D01*
X0101723Y0072458D01*
X0109136Y0072458D01*
X0110165Y0072884D01*
X0110953Y0073672D01*
X0111028Y0073853D01*
X0111103Y0073672D01*
X0111891Y0072884D01*
X0112920Y0072458D01*
X0119503Y0072458D01*
X0130306Y0061655D01*
X0130306Y0061655D01*
X0131036Y0060925D01*
X0131012Y0060912D01*
X0130401Y0060468D01*
X0129867Y0059934D01*
X0129423Y0059323D01*
X0129080Y0058650D01*
X0128846Y0057931D01*
X0128728Y0057185D01*
X0128728Y0054007D01*
X0133328Y0054007D01*
X0133328Y0053607D01*
X0133728Y0053607D01*
X0133728Y0054007D01*
X0138328Y0054007D01*
X0138328Y0057185D01*
X0138210Y0057931D01*
X0137976Y0058650D01*
X0137633Y0059323D01*
X0137189Y0059934D01*
X0137116Y0060007D01*
X0141954Y0060007D01*
X0147728Y0054233D01*
X0147728Y0049653D01*
X0148611Y0047522D01*
X0150242Y0045890D01*
X0152374Y0045007D01*
X0154682Y0045007D01*
X0156813Y0045890D01*
X0158445Y0047522D01*
X0159328Y0049653D01*
X0159328Y0057961D01*
X0158445Y0060093D01*
X0156813Y0061724D01*
X0154682Y0062607D01*
X0152374Y0062607D01*
X0150767Y0061942D01*
X0145680Y0067029D01*
X0144284Y0067607D01*
X0135102Y0067607D01*
X0122576Y0080133D01*
X0122576Y0081885D01*
X0125306Y0079155D01*
X0126375Y0078086D01*
X0127772Y0077507D01*
X0137454Y0077507D01*
X0137401Y0077468D01*
X0136867Y0076934D01*
X0136423Y0076323D01*
X0136080Y0075650D01*
X0135846Y0074931D01*
X0135728Y0074185D01*
X0135728Y0074007D01*
X0143328Y0074007D01*
X0143328Y0073607D01*
X0143728Y0073607D01*
X0143728Y0069007D01*
X0146906Y0069007D01*
X0147652Y0069125D01*
X0148370Y0069359D01*
X0149044Y0069702D01*
X0149655Y0070146D01*
X0150189Y0070680D01*
X0150633Y0071291D01*
X0150976Y0071965D01*
X0151210Y0072683D01*
X0151287Y0073174D01*
X0162228Y0062233D01*
X0162228Y0041234D01*
X0161983Y0041478D01*
X0159741Y0042407D01*
X0157315Y0042407D01*
X0157291Y0042397D01*
X0156784Y0042607D01*
X0127602Y0042607D01*
X0096749Y0073460D01*
X0095911Y0074298D01*
X0096201Y0074445D01*
X0096850Y0074917D01*
X0097418Y0075485D01*
X0097890Y0076134D01*
X0098254Y0076849D01*
X0098502Y0077613D01*
X0098628Y0078406D01*
X0098628Y0078507D01*
X0093828Y0078507D01*
X0093828Y0079107D01*
X0098628Y0079107D01*
X0098628Y0079208D01*
X0098502Y0080001D01*
X0098254Y0080765D01*
X0097890Y0081480D01*
X0097418Y0082130D01*
X0096850Y0082697D01*
X0096201Y0083169D01*
X0095486Y0083533D01*
X0094722Y0083781D01*
X0093929Y0083907D01*
X0093828Y0083907D01*
X0093828Y0079107D01*
X0093228Y0079107D01*
X0093228Y0078507D01*
X0088428Y0078507D01*
X0088428Y0078406D01*
X0088553Y0077613D01*
X0088802Y0076849D01*
X0089166Y0076134D01*
X0089638Y0075485D01*
X0090015Y0075107D01*
X0080102Y0075107D01*
X0074249Y0080960D01*
X0073180Y0082029D01*
X0071784Y0082607D01*
X0058355Y0082607D01*
X0056983Y0083978D01*
X0054741Y0084907D01*
X0052315Y0084907D01*
X0050073Y0083978D01*
X0048701Y0082607D01*
X0040102Y0082607D01*
X0034576Y0088133D01*
X0034576Y0090010D01*
X0033655Y0092233D01*
X0031954Y0093934D01*
X0029731Y0094855D01*
X0027325Y0094855D01*
X0025102Y0093934D01*
X0023401Y0092233D01*
X0022480Y0090010D01*
X0022480Y0087604D01*
X0023401Y0085381D01*
X0025102Y0083680D01*
X0027325Y0082759D01*
X0029202Y0082759D01*
X0035306Y0076655D01*
X0036375Y0075586D01*
X0037772Y0075007D01*
X0048701Y0075007D01*
X0050073Y0073636D01*
X0052315Y0072707D01*
X0054741Y0072707D01*
X0056983Y0073636D01*
X0058355Y0075007D01*
X0069454Y0075007D01*
X0076375Y0068086D01*
X0077772Y0067507D01*
X0091954Y0067507D01*
X0117130Y0042331D01*
X0115073Y0041478D01*
X0113701Y0040107D01*
X0092602Y0040107D01*
X0084249Y0048460D01*
X0083180Y0049529D01*
X0082983Y0049610D01*
X0081730Y0050864D01*
X0079755Y0051682D01*
X0078527Y0051682D01*
X0078180Y0052029D01*
X0076784Y0052607D01*
X0063355Y0052607D01*
X0061983Y0053978D01*
X0059741Y0054907D01*
X0057315Y0054907D01*
X0055073Y0053978D01*
X0053357Y0052262D01*
X0052428Y0050020D01*
X0052428Y0047594D01*
X0053357Y0045352D01*
X0055073Y0043636D01*
X0057315Y0042707D01*
X0059741Y0042707D01*
X0061983Y0043636D01*
X0063355Y0045007D01*
X0073406Y0045007D01*
X0074129Y0043262D01*
X0075641Y0041751D01*
X0077616Y0040932D01*
X0079755Y0040932D01*
X0080655Y0041305D01*
X0087806Y0034155D01*
X0088875Y0033086D01*
X0090272Y0032507D01*
X0113701Y0032507D01*
X0115073Y0031136D01*
X0117315Y0030207D01*
X0119254Y0030207D01*
X0123875Y0025586D01*
X0125272Y0025007D01*
X0166784Y0025007D01*
X0168180Y0025586D01*
X0169249Y0026655D01*
X0169828Y0028051D01*
X0169828Y0064563D01*
X0169249Y0065960D01*
X0168180Y0067029D01*
X0150680Y0084529D01*
X0149284Y0085107D01*
X0130102Y0085107D01*
X0125680Y0089529D01*
X0124828Y0089882D01*
X0124828Y0091587D01*
X0124865Y0091514D01*
X0125270Y0090957D01*
X0125757Y0090470D01*
X0126314Y0090065D01*
X0126927Y0089753D01*
X0127582Y0089540D01*
X0128262Y0089432D01*
X0128607Y0089432D01*
X0128951Y0089432D01*
X0129631Y0089540D01*
X0130286Y0089753D01*
X0130900Y0090065D01*
X0131457Y0090470D01*
X0131944Y0090957D01*
X0132348Y0091514D01*
X0132633Y0092073D01*
X0132806Y0091655D01*
X0133875Y0090586D01*
X0134207Y0090448D01*
X0135405Y0089251D01*
X0137380Y0088432D01*
X0139518Y0088432D01*
X0141494Y0089251D01*
X0143006Y0090762D01*
X0143824Y0092738D01*
X0143824Y0094876D01*
X0143006Y0096852D01*
X0141494Y0098364D01*
X0139828Y0099054D01*
X0139828Y0102063D01*
X0139249Y0103460D01*
X0138902Y0103807D01*
X0157854Y0122759D01*
X0162333Y0122759D01*
X0163362Y0123185D01*
X0164150Y0123973D01*
X0164576Y0125002D01*
X0164576Y0132612D01*
X0164150Y0133641D01*
X0163362Y0134429D01*
X0162333Y0134855D01*
X0154723Y0134855D01*
X0153694Y0134429D01*
X0152906Y0133641D01*
X0152480Y0132612D01*
X0152480Y0128133D01*
X0133528Y0109181D01*
X0122377Y0120332D01*
X0122377Y0126915D01*
X0121951Y0127944D01*
X0121163Y0128732D01*
X0120982Y0128807D01*
X0121163Y0128882D01*
X0121951Y0129670D01*
X0122377Y0130699D01*
X0122377Y0138112D01*
X0121951Y0139141D01*
X0121163Y0139929D01*
X0120134Y0140355D01*
X0111922Y0140355D01*
X0110893Y0139929D01*
X0110105Y0139141D01*
X0109679Y0138112D01*
X0109679Y0135107D01*
X0105272Y0135107D01*
X0103875Y0134529D01*
X0100324Y0130977D01*
X0100324Y0131307D01*
X0095949Y0131307D01*
X0091574Y0131307D01*
X0091574Y0131135D01*
X0091574Y0131307D02*
X0095949Y0131307D01*
X0095949Y0131307D01*
X0095949Y0135682D01*
X0095605Y0135682D01*
X0094925Y0135574D01*
X0094270Y0135361D01*
X0093656Y0135049D01*
X0093099Y0134644D01*
X0092612Y0134157D01*
X0092208Y0133600D01*
X0091895Y0132986D01*
X0091682Y0132332D01*
X0091574Y0131651D01*
X0091574Y0131307D01*
X0091335Y0132729D02*
X0091811Y0132729D01*
X0092782Y0134327D02*
X0090673Y0134327D01*
X0089001Y0135926D02*
X0109679Y0135926D01*
X0109679Y0137524D02*
X0064982Y0137524D01*
X0064088Y0135926D02*
X0083212Y0135926D01*
X0095949Y0135682D02*
X0095949Y0131307D01*
X0095949Y0131307D01*
X0095949Y0131307D01*
X0100324Y0131307D01*
X0100324Y0131651D01*
X0100216Y0132332D01*
X0100003Y0132986D01*
X0099691Y0133600D01*
X0099286Y0134157D01*
X0098799Y0134644D01*
X0098242Y0135049D01*
X0097629Y0135361D01*
X0096974Y0135574D01*
X0096293Y0135682D01*
X0095949Y0135682D01*
X0095949Y0134327D02*
X0095949Y0134327D01*
X0095949Y0132729D02*
X0095949Y0132729D01*
X0099116Y0134327D02*
X0103674Y0134327D01*
X0102076Y0132729D02*
X0100087Y0132729D01*
X0100324Y0131130D02*
X0100477Y0131130D01*
X0110097Y0139123D02*
X0066068Y0139123D01*
X0066528Y0140721D02*
X0170728Y0140721D01*
X0170728Y0139123D02*
X0121958Y0139123D01*
X0122377Y0137524D02*
X0170728Y0137524D01*
X0170728Y0135926D02*
X0122377Y0135926D01*
X0122377Y0134327D02*
X0153592Y0134327D01*
X0152528Y0132729D02*
X0141718Y0132729D01*
X0141816Y0132658D02*
X0141174Y0133125D01*
X0140466Y0133485D01*
X0139710Y0133731D01*
X0138925Y0133855D01*
X0138811Y0133855D01*
X0138811Y0129090D01*
X0143576Y0129090D01*
X0143576Y0129204D01*
X0143452Y0129989D01*
X0143206Y0130745D01*
X0142845Y0131453D01*
X0142378Y0132096D01*
X0141816Y0132658D01*
X0143010Y0131130D02*
X0152480Y0131130D01*
X0152480Y0129532D02*
X0143524Y0129532D01*
X0143576Y0128524D02*
X0138811Y0128524D01*
X0138811Y0129090D01*
X0138245Y0129090D01*
X0138245Y0133855D01*
X0138131Y0133855D01*
X0137346Y0133731D01*
X0136590Y0133485D01*
X0135882Y0133125D01*
X0135239Y0132658D01*
X0134677Y0132096D01*
X0134210Y0131453D01*
X0133850Y0130745D01*
X0133604Y0129989D01*
X0133480Y0129204D01*
X0133480Y0129090D01*
X0138245Y0129090D01*
X0138245Y0128524D01*
X0138811Y0128524D01*
X0138811Y0123759D01*
X0138925Y0123759D01*
X0139710Y0123883D01*
X0140466Y0124129D01*
X0141174Y0124490D01*
X0141816Y0124957D01*
X0142378Y0125519D01*
X0142845Y0126161D01*
X0143206Y0126869D01*
X0143452Y0127625D01*
X0143576Y0128410D01*
X0143576Y0128524D01*
X0143500Y0127933D02*
X0152280Y0127933D01*
X0150681Y0126335D02*
X0142934Y0126335D01*
X0141513Y0124736D02*
X0149083Y0124736D01*
X0147484Y0123138D02*
X0122377Y0123138D01*
X0122377Y0124736D02*
X0135543Y0124736D01*
X0135239Y0124957D02*
X0135882Y0124490D01*
X0136590Y0124129D01*
X0137346Y0123883D01*
X0138131Y0123759D01*
X0138245Y0123759D01*
X0138245Y0128524D01*
X0133480Y0128524D01*
X0133480Y0128410D01*
X0133604Y0127625D01*
X0133850Y0126869D01*
X0134210Y0126161D01*
X0134677Y0125519D01*
X0135239Y0124957D01*
X0134122Y0126335D02*
X0122377Y0126335D01*
X0121955Y0127933D02*
X0133555Y0127933D01*
X0133532Y0129532D02*
X0121813Y0129532D01*
X0122377Y0131130D02*
X0134046Y0131130D01*
X0135337Y0132729D02*
X0122377Y0132729D01*
X0122377Y0121539D02*
X0145886Y0121539D01*
X0144287Y0119941D02*
X0122768Y0119941D01*
X0124367Y0118342D02*
X0142689Y0118342D01*
X0141090Y0116744D02*
X0125965Y0116744D01*
X0127564Y0115145D02*
X0139492Y0115145D01*
X0137893Y0113547D02*
X0129162Y0113547D01*
X0130761Y0111948D02*
X0136295Y0111948D01*
X0134696Y0110350D02*
X0132359Y0110350D01*
X0126407Y0105554D02*
X0114655Y0105554D01*
X0116253Y0103955D02*
X0128005Y0103955D01*
X0129604Y0102357D02*
X0117852Y0102357D01*
X0119451Y0100758D02*
X0131203Y0100758D01*
X0131375Y0100586D02*
X0130306Y0101655D01*
X0116954Y0115007D01*
X0104525Y0115007D01*
X0105680Y0114529D01*
X0123180Y0097029D01*
X0124249Y0095960D01*
X0124505Y0095342D01*
X0124552Y0095486D01*
X0124865Y0096100D01*
X0125270Y0096657D01*
X0125757Y0097144D01*
X0126314Y0097549D01*
X0126927Y0097861D01*
X0127582Y0098074D01*
X0128262Y0098182D01*
X0128607Y0098182D01*
X0128607Y0093807D01*
X0132228Y0093807D01*
X0132228Y0093807D01*
X0128607Y0093807D01*
X0128607Y0093807D01*
X0128607Y0089432D01*
X0128607Y0093807D01*
X0128607Y0093807D01*
X0128607Y0093807D01*
X0128607Y0098182D01*
X0128951Y0098182D01*
X0129631Y0098074D01*
X0130286Y0097861D01*
X0130900Y0097549D01*
X0131457Y0097144D01*
X0131944Y0096657D01*
X0132228Y0096266D01*
X0132228Y0099733D01*
X0131375Y0100586D01*
X0132228Y0099160D02*
X0121049Y0099160D01*
X0122648Y0097561D02*
X0126339Y0097561D01*
X0128607Y0097561D02*
X0128607Y0097561D01*
X0130875Y0097561D02*
X0132228Y0097561D01*
X0128607Y0095963D02*
X0128607Y0095963D01*
X0128607Y0094364D02*
X0128607Y0094364D01*
X0128607Y0092766D02*
X0128607Y0092766D01*
X0128607Y0091167D02*
X0128607Y0091167D01*
X0128607Y0089569D02*
X0128607Y0089569D01*
X0129720Y0089569D02*
X0135086Y0089569D01*
X0133294Y0091167D02*
X0132096Y0091167D01*
X0127493Y0089569D02*
X0125583Y0089569D01*
X0125117Y0091167D02*
X0124828Y0091167D01*
X0127239Y0087970D02*
X0182929Y0087970D01*
X0182929Y0086372D02*
X0128837Y0086372D01*
X0122885Y0081576D02*
X0122576Y0081576D01*
X0122731Y0079978D02*
X0124483Y0079978D01*
X0124330Y0078379D02*
X0126082Y0078379D01*
X0125928Y0076781D02*
X0136755Y0076781D01*
X0135928Y0075182D02*
X0127527Y0075182D01*
X0129125Y0073584D02*
X0135728Y0073584D01*
X0135728Y0073607D02*
X0135728Y0073429D01*
X0135846Y0072683D01*
X0136080Y0071965D01*
X0136423Y0071291D01*
X0136867Y0070680D01*
X0137401Y0070146D01*
X0138012Y0069702D01*
X0138685Y0069359D01*
X0139404Y0069125D01*
X0140150Y0069007D01*
X0143328Y0069007D01*
X0143328Y0073607D01*
X0135728Y0073607D01*
X0136073Y0071985D02*
X0130724Y0071985D01*
X0132322Y0070387D02*
X0137160Y0070387D01*
X0133921Y0068788D02*
X0155673Y0068788D01*
X0157271Y0067190D02*
X0145291Y0067190D01*
X0147118Y0065591D02*
X0158870Y0065591D01*
X0160468Y0063993D02*
X0148716Y0063993D01*
X0150315Y0062394D02*
X0151860Y0062394D01*
X0155196Y0062394D02*
X0162067Y0062394D01*
X0162228Y0060796D02*
X0157742Y0060796D01*
X0158816Y0059197D02*
X0162228Y0059197D01*
X0162228Y0057599D02*
X0159328Y0057599D01*
X0159328Y0056000D02*
X0162228Y0056000D01*
X0162228Y0054402D02*
X0159328Y0054402D01*
X0159328Y0052803D02*
X0162228Y0052803D01*
X0162228Y0051205D02*
X0159328Y0051205D01*
X0159308Y0049606D02*
X0162228Y0049606D01*
X0162228Y0048008D02*
X0158646Y0048008D01*
X0157332Y0046409D02*
X0162228Y0046409D01*
X0162228Y0044811D02*
X0125398Y0044811D01*
X0123800Y0046409D02*
X0131587Y0046409D01*
X0131685Y0046359D02*
X0132404Y0046125D01*
X0133150Y0046007D01*
X0133328Y0046007D01*
X0133328Y0053607D01*
X0128728Y0053607D01*
X0128728Y0050429D01*
X0128846Y0049683D01*
X0129080Y0048965D01*
X0129423Y0048291D01*
X0129867Y0047680D01*
X0130401Y0047146D01*
X0131012Y0046702D01*
X0131685Y0046359D01*
X0133328Y0046409D02*
X0133728Y0046409D01*
X0133728Y0046007D02*
X0133906Y0046007D01*
X0134652Y0046125D01*
X0135370Y0046359D01*
X0136044Y0046702D01*
X0136655Y0047146D01*
X0137189Y0047680D01*
X0137633Y0048291D01*
X0137976Y0048965D01*
X0138210Y0049683D01*
X0138328Y0050429D01*
X0138328Y0053607D01*
X0133728Y0053607D01*
X0133728Y0046007D01*
X0135469Y0046409D02*
X0149723Y0046409D01*
X0148410Y0048008D02*
X0137427Y0048008D01*
X0138185Y0049606D02*
X0147747Y0049606D01*
X0147728Y0051205D02*
X0138328Y0051205D01*
X0138328Y0052803D02*
X0147728Y0052803D01*
X0147559Y0054402D02*
X0138328Y0054402D01*
X0138328Y0056000D02*
X0145961Y0056000D01*
X0144362Y0057599D02*
X0138262Y0057599D01*
X0137697Y0059197D02*
X0142764Y0059197D01*
X0133728Y0052803D02*
X0133328Y0052803D01*
X0133328Y0051205D02*
X0133728Y0051205D01*
X0133728Y0049606D02*
X0133328Y0049606D01*
X0133328Y0048008D02*
X0133728Y0048008D01*
X0129629Y0048008D02*
X0122201Y0048008D01*
X0120603Y0049606D02*
X0128871Y0049606D01*
X0128728Y0051205D02*
X0119004Y0051205D01*
X0117406Y0052803D02*
X0128728Y0052803D01*
X0128728Y0054402D02*
X0115807Y0054402D01*
X0114209Y0056000D02*
X0128728Y0056000D01*
X0128793Y0057599D02*
X0112610Y0057599D01*
X0111012Y0059197D02*
X0129359Y0059197D01*
X0130852Y0060796D02*
X0109413Y0060796D01*
X0107815Y0062394D02*
X0129567Y0062394D01*
X0127968Y0063993D02*
X0106216Y0063993D01*
X0104618Y0065591D02*
X0126370Y0065591D01*
X0124771Y0067190D02*
X0103019Y0067190D01*
X0101421Y0068788D02*
X0123173Y0068788D01*
X0121574Y0070387D02*
X0099822Y0070387D01*
X0098224Y0071985D02*
X0119976Y0071985D01*
X0111191Y0073584D02*
X0110865Y0073584D01*
X0099994Y0073584D02*
X0096625Y0073584D01*
X0097116Y0075182D02*
X0099480Y0075182D01*
X0099480Y0076781D02*
X0098219Y0076781D01*
X0098624Y0078379D02*
X0099480Y0078379D01*
X0099480Y0079978D02*
X0098506Y0079978D01*
X0097820Y0081576D02*
X0099480Y0081576D01*
X0099588Y0083175D02*
X0096189Y0083175D01*
X0093828Y0083175D02*
X0093228Y0083175D01*
X0093228Y0083907D02*
X0093127Y0083907D01*
X0092334Y0083781D01*
X0091570Y0083533D01*
X0090855Y0083169D01*
X0090205Y0082697D01*
X0089638Y0082130D01*
X0089166Y0081480D01*
X0088802Y0080765D01*
X0088553Y0080001D01*
X0088428Y0079208D01*
X0088428Y0079107D01*
X0093228Y0079107D01*
X0093228Y0083907D01*
X0090866Y0083175D02*
X0057787Y0083175D01*
X0055064Y0084773D02*
X0099728Y0084773D01*
X0099728Y0086372D02*
X0036337Y0086372D01*
X0034739Y0087970D02*
X0049154Y0087970D01*
X0047392Y0089569D02*
X0034576Y0089569D01*
X0034097Y0091167D02*
X0045794Y0091167D01*
X0044846Y0092766D02*
X0033122Y0092766D01*
X0030916Y0094364D02*
X0044728Y0094364D01*
X0044728Y0095963D02*
X0021058Y0095963D01*
X0019459Y0094364D02*
X0026140Y0094364D01*
X0023934Y0092766D02*
X0017861Y0092766D01*
X0017328Y0091167D02*
X0022959Y0091167D01*
X0022480Y0089569D02*
X0017328Y0089569D01*
X0017328Y0087970D02*
X0022480Y0087970D01*
X0022990Y0086372D02*
X0017328Y0086372D01*
X0017328Y0084773D02*
X0024008Y0084773D01*
X0026321Y0083175D02*
X0017328Y0083175D01*
X0017328Y0081576D02*
X0030385Y0081576D01*
X0031983Y0079978D02*
X0017328Y0079978D01*
X0017328Y0078379D02*
X0033582Y0078379D01*
X0035180Y0076781D02*
X0025928Y0076781D01*
X0026749Y0075960D02*
X0026749Y0075960D01*
X0027527Y0075182D02*
X0037349Y0075182D01*
X0032322Y0070387D02*
X0056481Y0070387D01*
X0058796Y0071985D02*
X0030724Y0071985D01*
X0029125Y0073584D02*
X0050198Y0073584D01*
X0056858Y0073584D02*
X0070877Y0073584D01*
X0072476Y0071985D02*
X0063260Y0071985D01*
X0065575Y0070387D02*
X0074074Y0070387D01*
X0075673Y0068788D02*
X0066603Y0068788D01*
X0067128Y0067190D02*
X0092271Y0067190D01*
X0093870Y0065591D02*
X0067128Y0065591D01*
X0066672Y0063993D02*
X0095468Y0063993D01*
X0097067Y0062394D02*
X0065742Y0062394D01*
X0063662Y0060796D02*
X0098665Y0060796D01*
X0100264Y0059197D02*
X0017328Y0059197D01*
X0017328Y0057599D02*
X0101862Y0057599D01*
X0103461Y0056000D02*
X0017328Y0056000D01*
X0020961Y0054402D02*
X0056094Y0054402D01*
X0053897Y0052803D02*
X0023159Y0052803D01*
X0024137Y0051205D02*
X0052918Y0051205D01*
X0052428Y0049606D02*
X0024628Y0049606D01*
X0024628Y0048008D02*
X0052428Y0048008D01*
X0052919Y0046409D02*
X0024137Y0046409D01*
X0023158Y0044811D02*
X0053898Y0044811D01*
X0056095Y0043212D02*
X0020960Y0043212D01*
X0016095Y0043212D02*
X0013328Y0043212D01*
X0013328Y0041614D02*
X0075972Y0041614D01*
X0074179Y0043212D02*
X0060960Y0043212D01*
X0063158Y0044811D02*
X0073488Y0044811D01*
X0080907Y0051205D02*
X0108256Y0051205D01*
X0106658Y0052803D02*
X0063159Y0052803D01*
X0060961Y0054402D02*
X0105059Y0054402D01*
X0101220Y0049644D02*
X0100663Y0050049D01*
X0100050Y0050361D01*
X0099395Y0050574D01*
X0098715Y0050682D01*
X0098370Y0050682D01*
X0098026Y0050682D01*
X0097346Y0050574D01*
X0096691Y0050361D01*
X0096078Y0050049D01*
X0095520Y0049644D01*
X0095034Y0049157D01*
X0094629Y0048600D01*
X0094316Y0047986D01*
X0094103Y0047332D01*
X0093996Y0046651D01*
X0093996Y0046307D01*
X0093996Y0045963D01*
X0094103Y0045283D01*
X0094316Y0044628D01*
X0094629Y0044014D01*
X0095034Y0043457D01*
X0095520Y0042970D01*
X0096078Y0042565D01*
X0096691Y0042253D01*
X0097346Y0042040D01*
X0098026Y0041932D01*
X0098370Y0041932D01*
X0098370Y0046307D01*
X0093996Y0046307D01*
X0098370Y0046307D01*
X0098370Y0046307D01*
X0098370Y0046307D01*
X0098370Y0050682D01*
X0098370Y0046307D01*
X0098370Y0046307D01*
X0098370Y0041932D01*
X0098715Y0041932D01*
X0099395Y0042040D01*
X0100050Y0042253D01*
X0100663Y0042565D01*
X0101220Y0042970D01*
X0101707Y0043457D01*
X0102112Y0044014D01*
X0102425Y0044628D01*
X0102637Y0045283D01*
X0102745Y0045963D01*
X0102745Y0046307D01*
X0098371Y0046307D01*
X0098371Y0046307D01*
X0102745Y0046307D01*
X0102745Y0046651D01*
X0102637Y0047332D01*
X0102425Y0047986D01*
X0102112Y0048600D01*
X0101707Y0049157D01*
X0101220Y0049644D01*
X0101258Y0049606D02*
X0109855Y0049606D01*
X0111453Y0048008D02*
X0102414Y0048008D01*
X0102745Y0046409D02*
X0113052Y0046409D01*
X0114650Y0044811D02*
X0102484Y0044811D01*
X0101462Y0043212D02*
X0116249Y0043212D01*
X0115399Y0041614D02*
X0091095Y0041614D01*
X0089497Y0043212D02*
X0095279Y0043212D01*
X0094257Y0044811D02*
X0087898Y0044811D01*
X0086300Y0046409D02*
X0093996Y0046409D01*
X0094327Y0048008D02*
X0084701Y0048008D01*
X0082993Y0049606D02*
X0095483Y0049606D01*
X0098370Y0049606D02*
X0098370Y0049606D01*
X0098370Y0048008D02*
X0098370Y0048008D01*
X0098370Y0046409D02*
X0098370Y0046409D01*
X0098370Y0044811D02*
X0098370Y0044811D01*
X0098370Y0043212D02*
X0098370Y0043212D01*
X0088340Y0033621D02*
X0013328Y0033621D01*
X0013328Y0032022D02*
X0114186Y0032022D01*
X0116791Y0030424D02*
X0013328Y0030424D01*
X0013328Y0028825D02*
X0120636Y0028825D01*
X0122234Y0027227D02*
X0013328Y0027227D01*
X0013328Y0025628D02*
X0123833Y0025628D01*
X0123126Y0017636D02*
X0171326Y0017636D01*
X0170728Y0016037D02*
X0123575Y0016037D01*
X0123227Y0014439D02*
X0170728Y0014439D01*
X0170728Y0012840D02*
X0121314Y0012840D01*
X0120506Y0011242D02*
X0170728Y0011242D01*
X0171661Y0009643D02*
X0120506Y0009643D01*
X0108416Y0017636D02*
X0025730Y0017636D01*
X0026328Y0016037D02*
X0069075Y0016037D01*
X0066800Y0014439D02*
X0026328Y0014439D01*
X0026328Y0012840D02*
X0065367Y0012840D01*
X0064997Y0011242D02*
X0026328Y0011242D01*
X0025395Y0009643D02*
X0064997Y0009643D01*
X0073458Y0016037D02*
X0078283Y0016037D01*
X0076008Y0014439D02*
X0075733Y0014439D01*
X0084200Y0016037D02*
X0087491Y0016037D01*
X0091873Y0016037D02*
X0096699Y0016037D01*
X0094423Y0014439D02*
X0094149Y0014439D01*
X0101081Y0016037D02*
X0105907Y0016037D01*
X0103631Y0014439D02*
X0103357Y0014439D01*
X0102237Y0015558D02*
X0102237Y0015558D01*
X0086741Y0035220D02*
X0013328Y0035220D01*
X0013328Y0036818D02*
X0085143Y0036818D01*
X0083544Y0038417D02*
X0013328Y0038417D01*
X0013328Y0040015D02*
X0081946Y0040015D01*
X0058394Y0060796D02*
X0017328Y0060796D01*
X0017328Y0062394D02*
X0017737Y0062394D01*
X0020728Y0062394D02*
X0021328Y0062394D01*
X0021328Y0063993D02*
X0020728Y0063993D01*
X0020728Y0065591D02*
X0021328Y0065591D01*
X0024319Y0062394D02*
X0056314Y0062394D01*
X0075231Y0079978D02*
X0088550Y0079978D01*
X0088432Y0078379D02*
X0076830Y0078379D01*
X0078428Y0076781D02*
X0088836Y0076781D01*
X0089940Y0075182D02*
X0080027Y0075182D01*
X0073633Y0081576D02*
X0089236Y0081576D01*
X0093228Y0081576D02*
X0093828Y0081576D01*
X0093828Y0079978D02*
X0093228Y0079978D01*
X0124246Y0095963D02*
X0124795Y0095963D01*
X0124808Y0107153D02*
X0113056Y0107153D01*
X0111458Y0108751D02*
X0123210Y0108751D01*
X0121611Y0110350D02*
X0109859Y0110350D01*
X0108261Y0111948D02*
X0120013Y0111948D01*
X0118414Y0113547D02*
X0106662Y0113547D01*
X0138245Y0124736D02*
X0138811Y0124736D01*
X0138811Y0126335D02*
X0138245Y0126335D01*
X0138245Y0127933D02*
X0138811Y0127933D01*
X0138811Y0129532D02*
X0138245Y0129532D01*
X0138245Y0131130D02*
X0138811Y0131130D01*
X0138811Y0132729D02*
X0138245Y0132729D01*
X0153437Y0118342D02*
X0182929Y0118342D01*
X0182929Y0116744D02*
X0151838Y0116744D01*
X0150240Y0115145D02*
X0182929Y0115145D01*
X0182929Y0113547D02*
X0148641Y0113547D01*
X0147043Y0111948D02*
X0182929Y0111948D01*
X0182929Y0110350D02*
X0145444Y0110350D01*
X0143846Y0108751D02*
X0182929Y0108751D01*
X0182929Y0107153D02*
X0142247Y0107153D01*
X0140649Y0105554D02*
X0182929Y0105554D01*
X0182929Y0103955D02*
X0139050Y0103955D01*
X0139706Y0102357D02*
X0182929Y0102357D01*
X0182929Y0100758D02*
X0139828Y0100758D01*
X0139828Y0099160D02*
X0182929Y0099160D01*
X0182929Y0097561D02*
X0142296Y0097561D01*
X0143374Y0095963D02*
X0182929Y0095963D01*
X0182929Y0094364D02*
X0143824Y0094364D01*
X0143824Y0092766D02*
X0182929Y0092766D01*
X0182929Y0091167D02*
X0143173Y0091167D01*
X0141812Y0089569D02*
X0182929Y0089569D01*
X0182929Y0084773D02*
X0150089Y0084773D01*
X0152034Y0083175D02*
X0182929Y0083175D01*
X0182929Y0081576D02*
X0153633Y0081576D01*
X0155231Y0079978D02*
X0182929Y0079978D01*
X0182929Y0078379D02*
X0156830Y0078379D01*
X0158428Y0076781D02*
X0182929Y0076781D01*
X0182929Y0075182D02*
X0160027Y0075182D01*
X0161625Y0073584D02*
X0182929Y0073584D01*
X0182929Y0071985D02*
X0163224Y0071985D01*
X0164822Y0070387D02*
X0182929Y0070387D01*
X0182929Y0068788D02*
X0166421Y0068788D01*
X0168019Y0067190D02*
X0182929Y0067190D01*
X0182929Y0065591D02*
X0169402Y0065591D01*
X0169828Y0063993D02*
X0182929Y0063993D01*
X0182929Y0062394D02*
X0169828Y0062394D01*
X0169828Y0060796D02*
X0182929Y0060796D01*
X0182929Y0059197D02*
X0169828Y0059197D01*
X0169828Y0057599D02*
X0182929Y0057599D01*
X0182929Y0056000D02*
X0169828Y0056000D01*
X0169828Y0054402D02*
X0182929Y0054402D01*
X0182929Y0052803D02*
X0169828Y0052803D01*
X0169828Y0051205D02*
X0182929Y0051205D01*
X0182929Y0049606D02*
X0169828Y0049606D01*
X0169828Y0048008D02*
X0182929Y0048008D01*
X0182929Y0046409D02*
X0169828Y0046409D01*
X0169828Y0044811D02*
X0182929Y0044811D01*
X0182929Y0043212D02*
X0169828Y0043212D01*
X0169828Y0041614D02*
X0182929Y0041614D01*
X0182929Y0040015D02*
X0169828Y0040015D01*
X0169828Y0038417D02*
X0182929Y0038417D01*
X0182929Y0036818D02*
X0169828Y0036818D01*
X0169828Y0035220D02*
X0182929Y0035220D01*
X0182929Y0033621D02*
X0169828Y0033621D01*
X0169828Y0032022D02*
X0182929Y0032022D01*
X0182929Y0030424D02*
X0169828Y0030424D01*
X0169828Y0028825D02*
X0182929Y0028825D01*
X0182929Y0027227D02*
X0169486Y0027227D01*
X0168223Y0025628D02*
X0182929Y0025628D01*
X0182929Y0024030D02*
X0013328Y0024030D01*
X0013328Y0022431D02*
X0182929Y0022431D01*
X0182929Y0020833D02*
X0182533Y0020833D01*
X0174523Y0020833D02*
X0022533Y0020833D01*
X0024131Y0019234D02*
X0172924Y0019234D01*
X0162228Y0041614D02*
X0161657Y0041614D01*
X0162228Y0043212D02*
X0126997Y0043212D01*
X0143328Y0070387D02*
X0143728Y0070387D01*
X0143728Y0071985D02*
X0143328Y0071985D01*
X0143328Y0073584D02*
X0143728Y0073584D01*
X0149896Y0070387D02*
X0154074Y0070387D01*
X0152476Y0071985D02*
X0150983Y0071985D01*
X0155035Y0119941D02*
X0182929Y0119941D01*
X0182929Y0121539D02*
X0156634Y0121539D01*
X0163247Y0123138D02*
X0182929Y0123138D01*
X0182929Y0124736D02*
X0164466Y0124736D01*
X0164576Y0126335D02*
X0182929Y0126335D01*
X0182929Y0127933D02*
X0164576Y0127933D01*
X0164576Y0129532D02*
X0182929Y0129532D01*
X0182929Y0131130D02*
X0181882Y0131130D01*
X0175174Y0131130D02*
X0164576Y0131130D01*
X0164528Y0132729D02*
X0173575Y0132729D01*
X0171977Y0134327D02*
X0163464Y0134327D01*
X0171010Y0142320D02*
X0066528Y0142320D01*
X0065891Y0143918D02*
X0172608Y0143918D01*
X0053888Y0136307D02*
X0052869Y0135885D01*
X0052091Y0135107D01*
X0047772Y0135107D01*
X0046375Y0134529D01*
X0045428Y0133581D01*
X0045428Y0133807D01*
X0041028Y0133807D01*
X0041028Y0133807D01*
X0041028Y0129407D01*
X0041028Y0133807D01*
X0041028Y0133807D01*
X0045428Y0133807D01*
X0045428Y0135630D01*
X0043550Y0137507D01*
X0052091Y0137507D01*
X0052869Y0136729D01*
X0053888Y0136307D01*
X0052967Y0135926D02*
X0045132Y0135926D01*
X0045428Y0134327D02*
X0046174Y0134327D01*
X0044728Y0131130D02*
X0044574Y0131130D01*
X0044728Y0129532D02*
X0042975Y0129532D01*
X0041028Y0129532D02*
X0041028Y0129532D01*
X0041028Y0131130D02*
X0041028Y0131130D01*
X0041028Y0132729D02*
X0041028Y0132729D01*
X0041028Y0133807D02*
X0036628Y0133807D01*
X0041028Y0133807D01*
X0041028Y0133807D01*
X0037482Y0131130D02*
X0035988Y0131130D01*
X0036428Y0132729D02*
X0036628Y0132729D01*
X0034389Y0129532D02*
X0039081Y0129532D01*
X0044728Y0127933D02*
X0013328Y0127933D01*
X0013328Y0126335D02*
X0044728Y0126335D01*
X0044728Y0124736D02*
X0013328Y0124736D01*
X0013328Y0123138D02*
X0044728Y0123138D01*
X0044728Y0121539D02*
X0013328Y0121539D01*
X0013328Y0119941D02*
X0044728Y0119941D01*
X0044728Y0118342D02*
X0013328Y0118342D01*
X0013328Y0116744D02*
X0044728Y0116744D01*
X0044728Y0115145D02*
X0013328Y0115145D01*
X0013328Y0113547D02*
X0022867Y0113547D01*
X0022480Y0111948D02*
X0013328Y0111948D01*
X0013328Y0110350D02*
X0022480Y0110350D01*
X0022480Y0108751D02*
X0013328Y0108751D01*
X0013328Y0107153D02*
X0021499Y0107153D01*
X0019901Y0105554D02*
X0013328Y0105554D01*
X0013328Y0103955D02*
X0018302Y0103955D01*
X0016704Y0102357D02*
X0013328Y0102357D01*
X0013328Y0100758D02*
X0015105Y0100758D01*
X0013507Y0099160D02*
X0013328Y0099160D01*
X0022656Y0097561D02*
X0044728Y0097561D01*
X0044728Y0099160D02*
X0024255Y0099160D01*
X0025853Y0100758D02*
X0044728Y0100758D01*
X0044728Y0102357D02*
X0027452Y0102357D01*
X0034132Y0103955D02*
X0044728Y0103955D01*
X0044728Y0105554D02*
X0034576Y0105554D01*
X0034576Y0107153D02*
X0044728Y0107153D01*
X0044728Y0108751D02*
X0034576Y0108751D01*
X0034576Y0110350D02*
X0044728Y0110350D01*
X0044728Y0111948D02*
X0034576Y0111948D01*
X0034189Y0113547D02*
X0044728Y0113547D01*
X0027667Y0129532D02*
X0013328Y0129532D01*
X0013328Y0131130D02*
X0015174Y0131130D01*
X0013575Y0132729D02*
X0013328Y0132729D01*
X0021882Y0131130D02*
X0026068Y0131130D01*
X0025628Y0132729D02*
X0023480Y0132729D01*
X0025079Y0134327D02*
X0025628Y0134327D01*
X0037936Y0084773D02*
X0051992Y0084773D01*
X0049269Y0083175D02*
X0039534Y0083175D01*
X0026370Y0065591D02*
X0026078Y0065591D01*
X0025573Y0063993D02*
X0027968Y0063993D01*
X0013898Y0044811D02*
X0013328Y0044811D01*
X0013328Y0020833D02*
X0014523Y0020833D01*
M02*
