%
M48
M72
T01C0.03150
T02C0.03200
T03C0.04000
T04C0.04331
T05C0.04400
%
T01
X78685Y46307
X98370Y46307
X128607Y93807
X138449Y93807
X98882Y105303
X87504Y105185
X76087Y105185
X86107Y131307
X95949Y131307
T02
X58528Y131307
X58528Y121307
X41028Y133807
X31028Y133807
X58528Y141307
T03
X143528Y73807
X153528Y53807
X133528Y53807
T04
X138528Y128807
X158528Y128807
X28528Y108807
X28528Y88807
T05
X18528Y13807
X18528Y48807
X21028Y66307
X53528Y78807
X61028Y66307
X58528Y48807
X93528Y78807
X118528Y36307
X158528Y36307
X178528Y13807
X178528Y138807
X18528Y138807
M30
